<mxfile host="app.diagrams.net" modified="2024-03-05T13:13:35.037Z" agent="Mozilla/5.0 (Windows NT 10.0; Win64; x64) AppleWebKit/537.36 (KHTML, like Gecko) Chrome/122.0.0.0 Safari/537.36" etag="dT18w700wdFDaNVMFzjx" version="24.0.1" type="github">
  <diagram name="第 1 页" id="65bKbwKjN0q9PuXdiJOc">
    <mxGraphModel dx="1804" dy="573" grid="1" gridSize="10" guides="1" tooltips="1" connect="1" arrows="1" fold="1" page="1" pageScale="1" pageWidth="827" pageHeight="1169" math="0" shadow="0">
      <root>
        <mxCell id="0" />
        <mxCell id="1" parent="0" />
        <mxCell id="R7HxWpwFjLeamwsqNsjf-2" value="" style="edgeStyle=orthogonalEdgeStyle;rounded=1;hachureGap=4;orthogonalLoop=1;jettySize=auto;html=1;" parent="1" source="RzodZvNiL_iSPK4zzAFR-1" target="R7HxWpwFjLeamwsqNsjf-1" edge="1">
          <mxGeometry relative="1" as="geometry" />
        </mxCell>
        <mxCell id="RzodZvNiL_iSPK4zzAFR-1" value="&lt;font style=&quot;font-size: 20px;&quot;&gt;Redis&lt;/font&gt;" style="rounded=1;whiteSpace=wrap;html=1;labelBackgroundColor=none;fillColor=#FAE5C7;strokeColor=#0F8B8D;fontColor=#143642;" parent="1" vertex="1">
          <mxGeometry x="-110" y="245" width="120" height="60" as="geometry" />
        </mxCell>
        <mxCell id="R7HxWpwFjLeamwsqNsjf-1" value="&lt;font style=&quot;font-size: 14px;&quot;&gt;Redis特点&lt;br&gt;1.基于内存，访问速度是磁盘的上千倍&lt;br&gt;&lt;/font&gt;&lt;div style=&quot;font-size: 14px;&quot;&gt;2.高效的事件处理模型：单线程事件+IO多路复用&lt;/div&gt;&lt;div style=&quot;font-size: 14px;&quot;&gt;3.内置优化后的数据结构性能高&lt;/div&gt;" style="whiteSpace=wrap;html=1;fillColor=#dae8fc;strokeColor=#6c8ebf;rounded=1;labelBackgroundColor=none;glass=0;" parent="1" vertex="1">
          <mxGeometry x="270" y="135" width="330" height="110" as="geometry" />
        </mxCell>
      </root>
    </mxGraphModel>
  </diagram>
</mxfile>
